<mxfile host="app.diagrams.net" modified="2023-06-12T14:40:23.319Z" agent="Mozilla/5.0 (Windows NT 10.0; Win64; x64) AppleWebKit/537.36 (KHTML, like Gecko) Chrome/114.0.0.0 Safari/537.36 Edg/114.0.1823.43" etag="wVdjvj38EGCH6h3znT-J" version="21.3.7" type="github">
  <diagram name="第 1 页" id="F7UE95_TtwlgKJ-Adihr">
    <mxGraphModel dx="2212" dy="861" grid="1" gridSize="10" guides="1" tooltips="1" connect="1" arrows="1" fold="1" page="1" pageScale="1" pageWidth="827" pageHeight="1169" math="0" shadow="0">
      <root>
        <mxCell id="0" />
        <mxCell id="1" parent="0" />
        <mxCell id="ezU-g5z-_iYozxNblPbD-1" value="" style="ellipse;whiteSpace=wrap;html=1;aspect=fixed;" vertex="1" parent="1">
          <mxGeometry x="167" y="170" width="494" height="494" as="geometry" />
        </mxCell>
        <mxCell id="ezU-g5z-_iYozxNblPbD-2" value="zkVM" style="text;html=1;strokeColor=none;fillColor=none;align=center;verticalAlign=middle;whiteSpace=wrap;rounded=0;fontSize=40;" vertex="1" parent="1">
          <mxGeometry x="560" y="402" width="60" height="30" as="geometry" />
        </mxCell>
        <mxCell id="ezU-g5z-_iYozxNblPbD-3" value="" style="ellipse;whiteSpace=wrap;html=1;aspect=fixed;" vertex="1" parent="1">
          <mxGeometry x="240" y="305" width="224" height="224" as="geometry" />
        </mxCell>
        <mxCell id="ezU-g5z-_iYozxNblPbD-5" value="zkEVM" style="text;html=1;strokeColor=none;fillColor=none;align=center;verticalAlign=middle;whiteSpace=wrap;rounded=0;fontSize=40;" vertex="1" parent="1">
          <mxGeometry x="322" y="402" width="60" height="30" as="geometry" />
        </mxCell>
        <mxCell id="ezU-g5z-_iYozxNblPbD-6" value="生态" style="text;html=1;strokeColor=none;fillColor=none;align=center;verticalAlign=middle;whiteSpace=wrap;rounded=0;fontSize=32;" vertex="1" parent="1">
          <mxGeometry x="303" y="460" width="98" height="30" as="geometry" />
        </mxCell>
        <mxCell id="ezU-g5z-_iYozxNblPbD-8" value="效率" style="text;html=1;strokeColor=none;fillColor=none;align=center;verticalAlign=middle;whiteSpace=wrap;rounded=0;fontSize=32;" vertex="1" parent="1">
          <mxGeometry x="541" y="460" width="98" height="30" as="geometry" />
        </mxCell>
      </root>
    </mxGraphModel>
  </diagram>
</mxfile>
